<svg xmlns="http://www.w3.org/2000/svg" width="232" height="232" fill="none"><path fill="#fff" d="M229.09 116c0 64.065-51.935 116-116 116s-116-51.935-116-116S49.025 0 113.09 0s116 51.935 116 116" style="stroke-width:1.01325" transform="translate(2.91)"/><path fill="#000" fill-rule="evenodd" d="M182.792 148.649c-5.391 12.964-10.758 22.426-18.449 30.628-7.682 8.193-17.623 15.064-32.062 22.94l-1.102-2.019c14.352-7.828 24.048-14.561 31.487-22.494 7.43-7.924 12.668-17.109 18.002-29.938zm13.995 13.6c-5.645 13.178-11.407 22.972-19.664 31.75-8.246 8.766-18.929 16.465-34.334 25.526l-1.166-1.982c15.332-9.019 25.798-16.587 33.824-25.119 8.014-8.52 13.646-18.055 19.226-31.081zM48.226 148.668c5.634 12.951 10.998 22.408 18.623 30.607 7.62 8.194 17.437 15.066 31.88 22.944l1.102-2.019c-14.348-7.826-23.92-14.558-31.298-22.491-7.372-7.928-12.612-17.118-18.198-29.958ZM34.227 162.26c5.89 13.418 11.65 23.211 19.846 31.928 8.185 8.705 18.745 16.279 34.148 25.339l1.166-1.982c-15.334-9.02-25.675-16.464-33.638-24.933-7.952-8.456-13.585-17.993-19.416-31.276Z" clip-rule="evenodd"/><g filter="url(#a)" transform="translate(2.91)"><mask id="b" fill="#fff"><path d="M88.09 185c0 13.807 11.193 25 25 25s25-11.193 25-25-11.193-25-25-25-25 11.193-25 25"/></mask><path fill="#ffd92d" d="M88.09 185c0 13.807 11.193 25 25 25s25-11.193 25-25-11.193-25-25-25-25 11.193-25 25"/><path stroke="#b35f00" stroke-opacity=".22" stroke-width="6.2" d="M88.09 185c0 13.807 11.193 25 25 25s25-11.193 25-25-11.193-25-25-25-25 11.193-25 25z" mask="url(#b)"/></g><path stroke="#0d15f5" stroke-miterlimit="10" d="m40.928 50.13 34.659 9.743m-33.805-1.834 29.045 8.328M37.47 74.13l27.405 8.05m-31.267-2.843L68.78 90.141m-37.043-3.116 34.239 11.63m-33.869-4.819 29.855 11.136m-34.404 6.152 26.687 6.632m-31.304-.501 35.577 9.137"/><g transform="translate(2.91)"><mask id="c" fill="#fff"><path d="M52.277 69.131c-7.58-6.54-15.742-17.055-13.557-25.208l-2.614 1.775c-2.463 9.19 4.762 16.8 12.192 24.115.478-.077.948-.168 1.426-.245.86-.139 1.714-.291 2.553-.437"/></mask><path fill="#0d15f5" stroke="#0d15f5" stroke-width="2" d="M52.277 69.131c-7.58-6.54-15.742-17.055-13.557-25.208l-2.614 1.775c-2.463 9.19 4.762 16.8 12.192 24.115.478-.077.948-.168 1.426-.245.86-.139 1.714-.291 2.553-.437z" mask="url(#c)"/></g><g transform="translate(2.91)"><mask id="d" fill="#fff"><path d="m57.54 133.276-2.614 1.775c2.388-8.911-7.812-19.59-15.476-27.098-6.943-8.064-16.28-16.243-13.7-25.87 1.601-10.074 13-12.829 23.403-13.583 10.137-1.725 23.034-4.016 25.422-12.927l2.836 3.546c-2.58 9.628-13.246 11.447-23.554 13.209-10.138 1.724-21.448 2.788-23.836 11.7s6.586 16.566 14.25 24.075c7.478 8.074 15.85 15.545 13.27 25.173"/></mask><path fill="#0d15f5" stroke="#0d15f5" stroke-width="2" d="m57.54 133.276-2.614 1.775c2.388-8.911-7.812-19.59-15.476-27.098-6.943-8.064-16.28-16.243-13.7-25.87 1.601-10.074 13-12.829 23.403-13.583 10.137-1.725 23.034-4.016 25.422-12.927l2.836 3.546c-2.58 9.628-13.246 11.447-23.554 13.209-10.138 1.724-21.448 2.788-23.836 11.7s6.586 16.566 14.25 24.075c7.478 8.074 15.85 15.545 13.27 25.173z" mask="url(#d)"/></g><g transform="translate(2.91)"><mask id="e" fill="#fff"><path d="M67.16 95.538c1.518-9.543-4.781-14.935-11.876-23.455-.479.077-.95.168-1.427.245-.85.142-1.703.294-2.543.44C58.19 79.59 65.82 86.797 63.635 94.95c-2.184 8.153-12.134 9.647-21.293 11.26.634.624 1.275 1.262 1.919 1.889.363.351.713.708 1.077 1.059 9.987-.182 20.306-4.077 21.823-13.62"/></mask><path fill="#0d15f5" stroke="#0d15f5" stroke-width="2" d="M67.16 95.538c1.518-9.543-4.781-14.935-11.876-23.455-.479.077-.95.168-1.427.245-.85.142-1.703.294-2.543.44C58.19 79.59 65.82 86.797 63.635 94.95c-2.184 8.153-12.134 9.647-21.293 11.26.634.624 1.275 1.262 1.919 1.889.363.351.713.708 1.077 1.059 9.987-.182 20.306-4.077 21.823-13.62z" mask="url(#e)"/></g><g transform="translate(2.91)"><mask id="f" fill="#fff"><path d="M38.373 106.895c-9.856 1.699-21.748 3.097-24.21 12.287l5.275 4.896c1.601-10.073 13.443-11.243 21.93-14.235-.633-.624-1.274-1.262-1.918-1.89-.363-.35-.724-.711-1.077-1.058"/></mask><path fill="#0d15f5" stroke="#0d15f5" stroke-width="2" d="M38.373 106.895c-9.856 1.699-21.748 3.097-24.21 12.287l5.275 4.896c1.601-10.073 13.443-11.243 21.93-14.235-.633-.624-1.274-1.262-1.918-1.89-.363-.35-.724-.711-1.077-1.058z" mask="url(#f)"/></g><g transform="translate(2.91)"><mask id="g" fill="#fff"><path d="M51.304 72.764c.84-.145 1.692-.298 2.542-.44.478-.077.949-.168 1.427-.245-.364-.35-.714-.708-1.077-1.058-.644-.628-1.285-1.266-1.919-1.89-.84.146-1.692.298-2.542.44-.478.077-.949.168-1.427.245.364.35.714.708 1.078 1.059.643.627 1.284 1.265 1.918 1.89"/></mask><path fill="#0d15f5" stroke="#0d15f5" stroke-width="2" d="M51.304 72.764c.84-.145 1.692-.298 2.542-.44.478-.077.949-.168 1.427-.245-.364-.35-.714-.708-1.077-1.058-.644-.628-1.285-1.266-1.919-1.89-.84.146-1.692.298-2.542.44-.478.077-.949.168-1.427.245.364.35.714.708 1.078 1.059.643.627 1.284 1.265 1.918 1.89z" mask="url(#g)"/></g><text xml:space="preserve" fill="#036320" font-family="'Kode Mono'" font-size="15.1" letter-spacing="0em" style="white-space:pre" transform="matrix(.99756 -.06976 .29237 .9563 138.189 72.25)"><tspan x=".261" y="10.634">01011001 </tspan><tspan x=".261" y="29.634">01101111 </tspan><tspan x=".261" y="48.634">01110101</tspan></text><path fill="#e20808" d="M76.5 31.21c0 19.211 36.059 30.608 38.966 53.79 3.012-23.182 37.876-34.576 37.876-53.79A19.213 19.213 0 0 0 134.132 12a19.2 19.2 0 0 0-13.584 5.627c-3.603 3.602-5.082 6.048-5.082 11.143 0-5.095-2.569-7.54-6.171-11.143a19.21 19.21 0 0 0-27.168 0C78.524 21.229 76.5 26.304 76.5 31.21"/><defs><filter id="a" width="58" height="58" x="84.09" y="156" color-interpolation-filters="sRGB" filterUnits="userSpaceOnUse"><feFlood flood-opacity="0" result="BackgroundImageFix"/><feGaussianBlur in="BackgroundImageFix" stdDeviation="2"/><feComposite in2="SourceAlpha" operator="in" result="effect1_backgroundBlur_9_11"/><feBlend in="SourceGraphic" in2="effect1_backgroundBlur_9_11" result="shape"/></filter></defs></svg>