<?xml version="1.0" encoding="UTF-8" standalone="no"?>
<svg
   width="232"
   height="232"
   viewBox="0 0 232 232"
   fill="none"
   version="1.1"
   id="svg15"
   xmlns="http://www.w3.org/2000/svg"
   xmlns:svg="http://www.w3.org/2000/svg"
   xmlns:rdf="http://www.w3.org/1999/02/22-rdf-syntax-ns#"
   xmlns:cc="http://creativecommons.org/ns#"
   xmlns:dc="http://purl.org/dc/elements/1.1/">
  <title
     id="title15">'Yourself to Science' Logo</title>
  <g
     id="Logo"
     transform="translate(2.9100055)">
    <path
       id="Circle"
       d="m 229.09,116 c 0,64.065 -51.93497,116 -116,116 C 49.024861,232 -2.9100055,180.065 -2.9100055,116 -2.9100055,51.935 49.024861,0 113.09,0 c 64.06503,0 116,51.935 116,116 z"
       fill="#ffffff"
       style="stroke-width:1.01325" />
    <g
       id="Inside">
      <g
         id="Person">
        <path
           id="Left Arm"
           fill-rule="evenodd"
           clip-rule="evenodd"
           d="m 179.882,148.649 c -5.391,12.964 -10.758,22.426 -18.449,30.628 -7.682,8.193 -17.623,15.064 -32.062,22.94 l -1.102,-2.019 c 14.352,-7.828 24.048,-14.561 31.487,-22.494 7.43,-7.924 12.668,-17.109 18.002,-29.938 z m 13.995,13.6 c -5.645,13.178 -11.407,22.972 -19.664,31.75 -8.246,8.766 -18.929,16.465 -34.334,25.526 l -1.166,-1.982 c 15.332,-9.019 25.798,-16.587 33.824,-25.119 8.014,-8.52 13.646,-18.055 19.226,-31.081 z"
           fill="#000000" />
        <path
           id="Righ Arm"
           fill-rule="evenodd"
           clip-rule="evenodd"
           d="m 45.3157,148.668 c 5.6339,12.951 10.9983,22.408 18.6232,30.607 7.6199,8.194 17.4373,15.066 31.8807,22.944 L 96.9209,200.2 C 82.5733,192.374 73.0006,185.642 65.6231,177.709 58.2508,169.781 53.0106,160.591 47.4248,147.751 Z M 31.3172,162.26 c 5.8895,13.418 11.6497,23.211 19.8457,31.928 8.1846,8.705 18.7451,16.279 34.1478,25.339 l 1.1662,-1.982 C 71.1429,208.525 60.8015,201.081 52.8385,192.612 44.8868,184.156 39.2536,174.619 33.4233,161.336 Z"
           fill="#000000" />
        <g
           id="Face"
           filter="url(#filter0_b_9_11)">
          <mask
             id="path-4-inside-1_9_11"
             fill="#ffffff">
            <path
               d="m 88.09,185 c 0,13.807 11.1928,25 25,25 13.807,0 25,-11.193 25,-25 0,-13.807 -11.193,-25 -25,-25 -13.8072,0 -25,11.193 -25,25 z"
               id="path1" />
          </mask>
          <path
             d="m 88.09,185 c 0,13.807 11.1928,25 25,25 13.807,0 25,-11.193 25,-25 0,-13.807 -11.193,-25 -25,-25 -13.8072,0 -25,11.193 -25,25 z"
             fill="#ffd92d"
             id="path2" />
          <path
             d="m 88.09,185 c 0,13.807 11.1928,25 25,25 13.807,0 25,-11.193 25,-25 0,-13.807 -11.193,-25 -25,-25 -13.8072,0 -25,11.193 -25,25 z"
             stroke="#b35f00"
             stroke-opacity="0.22"
             stroke-width="6.2"
             mask="url(#path-4-inside-1_9_11)"
             id="path3" />
        </g>
      </g>
      <g
         id="Elements">
        <g
           id="DNA">
          <g
             id="Group_2">
            <path
               id="Vector"
               d="m 38.0176,50.1296 34.659,9.7435"
               stroke="#0d15f5"
               stroke-miterlimit="10" />
            <path
               id="Vector_2"
               d="m 38.8719,58.0387 29.0454,8.3281"
               stroke="#0d15f5"
               stroke-miterlimit="10" />
            <path
               id="Vector_3"
               d="m 34.5601,74.1308 27.4047,8.0501"
               stroke="#0d15f5"
               stroke-miterlimit="10" />
            <path
               id="Vector_4"
               d="M 30.6975,79.3371 65.8707,90.1406"
               stroke="#0d15f5"
               stroke-miterlimit="10" />
            <path
               id="Vector_5"
               d="M 28.8266,87.0251 63.0655,98.6559"
               stroke="#0d15f5"
               stroke-miterlimit="10" />
            <path
               id="Vector_6"
               d="M 29.1974,93.8362 59.0516,104.972"
               stroke="#0d15f5"
               stroke-miterlimit="10" />
            <path
               id="Vector_7"
               d="m 24.6479,111.124 26.6868,6.632"
               stroke="#0d15f5"
               stroke-miterlimit="10" />
            <path
               id="Vector_8"
               d="m 20.0313,117.255 35.5768,9.137"
               stroke="#0d15f5"
               stroke-miterlimit="10" />
          </g>
          <g
             id="Vector_9">
            <mask
               id="path-13-inside-2_9_11"
               fill="#ffffff">
              <path
                 d="M 52.2773,69.1314 C 44.6972,62.5913 36.5355,52.0756 38.72,43.9226 l -2.6144,1.7757 c -2.4623,9.1894 4.7626,16.7989 12.192,24.1147 0.4781,-0.077 0.9485,-0.1681 1.4266,-0.2451 0.8606,-0.1385 1.7135,-0.2912 2.5531,-0.4365 z"
                 id="path4" />
            </mask>
            <path
               d="M 52.2773,69.1314 C 44.6972,62.5913 36.5355,52.0756 38.72,43.9226 l -2.6144,1.7757 c -2.4623,9.1894 4.7626,16.7989 12.192,24.1147 0.4781,-0.077 0.9485,-0.1681 1.4266,-0.2451 0.8606,-0.1385 1.7135,-0.2912 2.5531,-0.4365 z"
               fill="#0d15f5"
               stroke="#0d15f5"
               stroke-width="2"
               mask="url(#path-13-inside-2_9_11)"
               id="path5" />
          </g>
          <g
             id="Vector_10">
            <mask
               id="path-14-inside-3_9_11"
               fill="#ffffff">
              <path
                 d="m 57.5404,133.276 -2.6145,1.775 C 57.3138,126.14 47.1141,115.461 39.4503,107.953 32.5073,99.8895 23.1706,91.7101 25.7503,82.0825 27.3514,72.0093 38.7488,69.2542 49.1528,68.4995 59.2903,66.7754 72.1874,64.4843 74.5753,55.5727 l 2.8353,3.5464 c -2.5797,9.6276 -13.246,11.447 -23.5538,13.2087 -10.1375,1.7241 -21.4479,2.7883 -23.8357,11.7 -2.3879,8.9116 6.5861,16.5662 14.2499,24.0752 7.4777,8.074 15.8491,15.545 13.2694,25.173 z"
                 id="path6" />
            </mask>
            <path
               d="m 57.5404,133.276 -2.6145,1.775 C 57.3138,126.14 47.1141,115.461 39.4503,107.953 32.5073,99.8895 23.1706,91.7101 25.7503,82.0825 27.3514,72.0093 38.7488,69.2542 49.1528,68.4995 59.2903,66.7754 72.1874,64.4843 74.5753,55.5727 l 2.8353,3.5464 c -2.5797,9.6276 -13.246,11.447 -23.5538,13.2087 -10.1375,1.7241 -21.4479,2.7883 -23.8357,11.7 -2.3879,8.9116 6.5861,16.5662 14.2499,24.0752 7.4777,8.074 15.8491,15.545 13.2694,25.173 z"
               fill="#0d15f5"
               stroke="#0d15f5"
               stroke-width="2"
               mask="url(#path-14-inside-3_9_11)"
               id="path7" />
          </g>
          <g
             id="Vector_11">
            <mask
               id="path-15-inside-4_9_11"
               fill="#ffffff">
              <path
                 d="m 67.1606,95.5376 c 1.5169,-9.5431 -4.7818,-14.9349 -11.8771,-23.4548 -0.4781,0.077 -0.9486,0.1681 -1.4267,0.2451 -0.85,0.1419 -1.7029,0.2946 -2.5425,0.44 6.8755,6.8221 14.5057,14.0289 12.3211,22.1819 -2.1846,8.1532 -12.1348,9.6472 -21.2932,11.2602 0.6334,0.624 1.2744,1.262 1.9183,1.889 0.3636,0.351 0.7138,0.708 1.0773,1.059 9.9873,-0.182 20.3058,-4.077 21.8228,-13.6204 z"
                 id="path8" />
            </mask>
            <path
               d="m 67.1606,95.5376 c 1.5169,-9.5431 -4.7818,-14.9349 -11.8771,-23.4548 -0.4781,0.077 -0.9486,0.1681 -1.4267,0.2451 -0.85,0.1419 -1.7029,0.2946 -2.5425,0.44 6.8755,6.8221 14.5057,14.0289 12.3211,22.1819 -2.1846,8.1532 -12.1348,9.6472 -21.2932,11.2602 0.6334,0.624 1.2744,1.262 1.9183,1.889 0.3636,0.351 0.7138,0.708 1.0773,1.059 9.9873,-0.182 20.3058,-4.077 21.8228,-13.6204 z"
               fill="#0d15f5"
               stroke="#0d15f5"
               stroke-width="2"
               mask="url(#path-15-inside-4_9_11)"
               id="path9" />
          </g>
          <g
             id="Vector_12">
            <mask
               id="path-16-inside-5_9_11"
               fill="#ffffff">
              <path
                 d="m 38.373,106.895 c -9.8564,1.699 -21.748,3.097 -24.2103,12.287 l 5.2755,4.896 c 1.6012,-10.073 13.4432,-11.243 21.9305,-14.235 -0.6334,-0.624 -1.2745,-1.262 -1.9184,-1.89 -0.3635,-0.35 -0.7242,-0.711 -1.0773,-1.058 z"
                 id="path10" />
            </mask>
            <path
               d="m 38.373,106.895 c -9.8564,1.699 -21.748,3.097 -24.2103,12.287 l 5.2755,4.896 c 1.6012,-10.073 13.4432,-11.243 21.9305,-14.235 -0.6334,-0.624 -1.2745,-1.262 -1.9184,-1.89 -0.3635,-0.35 -0.7242,-0.711 -1.0773,-1.058 z"
               fill="#0d15f5"
               stroke="#0d15f5"
               stroke-width="2"
               mask="url(#path-16-inside-5_9_11)"
               id="path11" />
          </g>
          <g
             id="Vector_13">
            <mask
               id="path-17-inside-6_9_11"
               fill="#ffffff">
              <path
                 d="m 51.3038,72.7644 c 0.8395,-0.1454 1.6925,-0.298 2.5425,-0.44 0.4781,-0.077 0.9486,-0.168 1.4267,-0.245 -0.3636,-0.3505 -0.7138,-0.7082 -1.0774,-1.0586 -0.6439,-0.6274 -1.2849,-1.2655 -1.9183,-1.8894 -0.8396,0.1454 -1.6925,0.298 -2.5425,0.44 -0.4781,0.0769 -0.9486,0.168 -1.4267,0.245 0.3636,0.3504 0.7138,0.7081 1.0774,1.0586 0.6439,0.6274 1.2849,1.2654 1.9183,1.8894 z"
                 id="path12" />
            </mask>
            <path
               d="m 51.3038,72.7644 c 0.8395,-0.1454 1.6925,-0.298 2.5425,-0.44 0.4781,-0.077 0.9486,-0.168 1.4267,-0.245 -0.3636,-0.3505 -0.7138,-0.7082 -1.0774,-1.0586 -0.6439,-0.6274 -1.2849,-1.2655 -1.9183,-1.8894 -0.8396,0.1454 -1.6925,0.298 -2.5425,0.44 -0.4781,0.0769 -0.9486,0.168 -1.4267,0.245 0.3636,0.3504 0.7138,0.7081 1.0774,1.0586 0.6439,0.6274 1.2849,1.2654 1.9183,1.8894 z"
               fill="#0d15f5"
               stroke="#0d15f5"
               stroke-width="2"
               mask="url(#path-17-inside-6_9_11)"
               id="path13" />
          </g>
        </g>
        <text
           id="Code [You]"
           transform="matrix(0.997564,-0.0697565,0.292372,0.956305,135.279,72.25)"
           fill="#036320"
           xml:space="preserve"
           style="white-space:pre"
           font-family="'Kode Mono'"
           font-size="15.1px"
           letter-spacing="0em"><tspan
             x="0.26137501"
             y="10.634"
             id="tspan13">01011001 </tspan><tspan
             x="0.26137501"
             y="29.634001"
             id="tspan14">01101111 </tspan><tspan
             x="0.26137501"
             y="48.633999"
             id="tspan15">01110101</tspan></text>
        <path
           id="Heart"
           d="m 73.59,31.2105 c 0,19.2106 36.059,30.6071 38.966,53.7895 3.012,-23.1824 37.876,-34.5764 37.876,-53.7895 0,-5.0949 -2.024,-9.9812 -5.626,-13.5839 C 141.203,14.024 136.317,12 131.222,12 c -5.095,0 -9.981,2.024 -13.584,5.6266 -3.603,3.6027 -5.082,6.0487 -5.082,11.1437 0,-5.095 -2.569,-7.541 -6.171,-11.1437 C 102.782,14.024 97.8956,12 92.8006,12 87.7056,12 82.8193,14.024 79.2167,17.6266 75.614,21.2293 73.59,26.3041 73.59,31.2105 Z"
           fill="#e20808" />
      </g>
      <text
         xml:space="preserve"
         style="font-style:normal;font-variant:normal;font-weight:normal;font-stretch:normal;font-size:10.6667px;font-family:'Helvetica Neue';-inkscape-font-specification:'Helvetica Neue, Normal';font-variant-ligatures:normal;font-variant-caps:normal;font-variant-numeric:normal;font-variant-east-asian:normal;text-align:start;writing-mode:lr-tb;direction:ltr;text-anchor:start;fill:#000000"
         x="141.28081"
         y="227.67839"
         id="text1"><tspan
           id="tspan1"
           x="141.28081"
           y="227.67839">™</tspan></text>
    </g>
  </g>
  <defs
     id="defs15">
    <filter
       id="filter0_b_9_11"
       x="84.089996"
       y="156"
       width="58"
       height="58"
       filterUnits="userSpaceOnUse"
       color-interpolation-filters="sRGB">
      <feFlood
         flood-opacity="0"
         result="BackgroundImageFix"
         id="feFlood15" />
      <feGaussianBlur
         in="BackgroundImageFix"
         stdDeviation="2"
         id="feGaussianBlur15" />
      <feComposite
         in2="SourceAlpha"
         operator="in"
         result="effect1_backgroundBlur_9_11"
         id="feComposite15" />
      <feBlend
         mode="normal"
         in="SourceGraphic"
         in2="effect1_backgroundBlur_9_11"
         result="shape"
         id="feBlend15" />
    </filter>
  </defs>
  <metadata
     id="metadata15">
    <rdf:RDF>
      <cc:Work
         rdf:about="">
        <cc:license
           rdf:resource="http://creativecommons.org/licenses/by-sa/4.0/" />
        <dc:title>'Yourself to Science' Logo</dc:title>
        <dc:relation>https://yourselftoscience.org/</dc:relation>
      </cc:Work>
      <cc:License
         rdf:about="http://creativecommons.org/licenses/by-sa/4.0/">
        <cc:permits
           rdf:resource="http://creativecommons.org/ns#Reproduction" />
        <cc:permits
           rdf:resource="http://creativecommons.org/ns#Distribution" />
        <cc:requires
           rdf:resource="http://creativecommons.org/ns#Notice" />
        <cc:requires
           rdf:resource="http://creativecommons.org/ns#Attribution" />
        <cc:permits
           rdf:resource="http://creativecommons.org/ns#DerivativeWorks" />
        <cc:requires
           rdf:resource="http://creativecommons.org/ns#ShareAlike" />
      </cc:License>
    </rdf:RDF>
  </metadata>
</svg>
