<?xml version="1.0" encoding="UTF-8" standalone="no"?>
<svg
   width="400"
   height="60"
   viewBox="0 0 400 60"
   version="1.1"
   id="svg3"
   xmlns="http://www.w3.org/2000/svg"
   xmlns:svg="http://www.w3.org/2000/svg"
   xmlns:rdf="http://www.w3.org/1999/02/22-rdf-syntax-ns#"
   xmlns:cc="http://creativecommons.org/ns#">
  <defs
     id="defs2">
    <linearGradient
       id="g1"
       x1="57.769768"
       y1="26.907724"
       x2="57.769768"
       y2="66.030869"
       gradientTransform="scale(1.447351,0.69091742)"
       gradientUnits="userSpaceOnUse">
      <stop
         offset="0%"
         stop-color="#ffd92d"
         id="stop1" />
      <stop
         offset="100%"
         stop-color="#B35F00"
         id="stop2" />
    </linearGradient>
  </defs>
  <!-- 
    CRITICAL: For this text to appear correct and editable in Inkscape/Figma, 
    you MUST have the 'Roboto' font installed. 
    Without the font, editing may cause the text to jump or disappear.
  -->
  <g
     id="text3"
     style="font-weight:500;font-size:36px;font-family:Roboto, Arial, sans-serif;fill:#202124"
     aria-label="Yourself to Science™   ">
    <path
       d="M 20.037109,45 V 34.083984 l -9.93164,-14.853515 h 4.148437 L 19.333984,27 q 1.40625,2.179687 2.619141,4.359375 1.160156,-2.021484 2.8125,-4.552734 l 4.992187,-7.576172 h 3.972657 L 23.447266,34.083984 V 45 Z m 11.865235,-9.333984 q 0,-5.185547 2.882812,-7.681641 2.408203,-2.074219 5.871094,-2.074219 3.849609,0 6.292969,2.53125 2.443359,2.513672 2.443359,6.960938 0,3.603515 -1.089844,5.677734 -1.072265,2.056641 -3.146484,3.199219 -2.056641,1.142578 -4.5,1.142578 -3.919922,0 -6.345703,-2.513672 -2.408203,-2.513672 -2.408203,-7.242187 z m 3.251953,0 q 0,3.585937 1.564453,5.378906 1.564453,1.77539 3.9375,1.77539 2.355469,0 3.919922,-1.792968 1.564453,-1.792969 1.564453,-5.466797 0,-3.462891 -1.582031,-5.238281 -1.564453,-1.792969 -3.902344,-1.792969 -2.373047,0 -3.9375,1.77539 -1.564453,1.775391 -1.564453,5.361329 z M 65.335937,45 v -2.742188 q -2.179687,3.164063 -5.923828,3.164063 -1.652343,0 -3.09375,-0.632813 Q 54.894531,44.15625 54.191406,43.207031 53.505859,42.240234 53.224609,40.851562 53.03125,39.919922 53.03125,37.898437 V 26.332031 h 3.164062 v 10.353516 q 0,2.478515 0.19336,3.339844 0.298828,1.248046 1.265625,1.96875 0.966797,0.703125 2.390625,0.703125 1.423828,0 2.671875,-0.720704 1.248047,-0.738281 1.757812,-1.986328 0.527344,-1.265625 0.527344,-3.65625 V 26.332031 h 3.164063 V 45 Z m 7.751954,0 V 26.332031 h 2.847656 v 2.830078 q 1.089844,-1.986328 2.003906,-2.61914 0.931641,-0.632813 2.039063,-0.632813 1.599609,0 3.251953,1.019531 l -1.089844,2.935547 q -1.160156,-0.685547 -2.320313,-0.685547 -1.037109,0 -1.863281,0.632813 -0.826172,0.615234 -1.177734,1.722656 -0.527344,1.6875 -0.527344,3.691406 V 45 Z"
       id="path3" />
    <path
       style="fill:url(#g1);stroke:#ffd92d;stroke-width:0.4"
       d="m 83.845703,39.427734 3.128906,-0.492187 q 0.263672,1.880859 1.458985,2.882812 1.21289,1.001953 3.375,1.001953 2.179687,0 3.234375,-0.878906 1.054687,-0.896484 1.054687,-2.091797 0,-1.072265 -0.93164,-1.6875 -0.650391,-0.421875 -3.234375,-1.072265 -3.480469,-0.878907 -4.833985,-1.511719 -1.335937,-0.650391 -2.039062,-1.775391 -0.685547,-1.142578 -0.685547,-2.513672 0,-1.248046 0.5625,-2.302734 0.580078,-1.072266 1.564453,-1.775391 0.738281,-0.544921 2.003906,-0.914062 1.283203,-0.386719 2.742188,-0.386719 2.197265,0 3.849609,0.632813 1.669922,0.632812 2.460938,1.722656 0.791015,1.072266 1.089843,2.882812 l -3.09375,0.421875 q -0.210937,-1.441406 -1.230468,-2.25 -1.001954,-0.808593 -2.847657,-0.808593 -2.179687,0 -3.111328,0.720703 -0.93164,0.720703 -0.93164,1.6875 0,0.615234 0.386718,1.107422 0.386719,0.509765 1.212891,0.84375 0.474609,0.175781 2.794922,0.808593 3.357422,0.896485 4.675781,1.476563 1.335938,0.5625 2.091797,1.652344 0.755859,1.089843 0.755859,2.707031 0,1.582031 -0.93164,2.988281 -0.914063,1.388672 -2.654297,2.16211 -1.740235,0.755859 -3.9375,0.755859 -3.638672,0 -5.554688,-1.511719 -1.898437,-1.511719 -2.425781,-4.482422 z m 32.044927,-0.439453 3.26953,0.404297 q -0.77344,2.865234 -2.86524,4.447266 -2.09179,1.582031 -5.34375,1.582031 -4.0957,0 -6.5039,-2.513672 -2.39063,-2.53125 -2.39063,-7.083984 0,-4.710938 2.42578,-7.3125 2.42578,-2.601563 6.29297,-2.601563 3.74414,0 6.11719,2.548828 2.37305,2.548828 2.37305,7.171875 0,0.28125 -0.0176,0.84375 h -13.92188 q 0.17578,3.076172 1.74024,4.710938 1.56445,1.634765 3.90234,1.634765 1.74023,0 2.9707,-0.914062 1.23047,-0.914063 1.95118,-2.917969 z m -10.38868,-5.115234 h 10.42383 q -0.21094,-2.355469 -1.19531,-3.533203 -1.51172,-1.828125 -3.91992,-1.828125 -2.17969,0 -3.67383,1.458984 -1.47656,1.458984 -1.63477,3.902344 z M 123.0625,45 V 19.230469 h 3.16406 V 45 Z m 8.82422,0 V 28.792969 h -2.79492 v -2.460938 h 2.79492 v -1.986328 q 0,-1.880859 0.33398,-2.794922 0.45703,-1.230469 1.59961,-1.986328 1.16016,-0.773437 3.23438,-0.773437 1.33593,0 2.95312,0.316406 l -0.47461,2.759765 q -0.98437,-0.175781 -1.86328,-0.175781 -1.4414,0 -2.03906,0.615235 -0.59766,0.615234 -0.59766,2.302734 v 1.722656 h 3.63867 v 2.460938 H 135.0332 V 45 Z"
       id="path4" />
    <path
       d="M 158.04297,42.169922 158.5,44.964844 q -1.33594,0.28125 -2.39063,0.28125 -1.72265,0 -2.67187,-0.544922 -0.94922,-0.544922 -1.33594,-1.423828 -0.38672,-0.896485 -0.38672,-3.744141 V 28.792969 h -2.32031 v -2.460938 h 2.32031 v -4.623047 l 3.14649,-1.898437 v 6.521484 h 3.18164 v 2.460938 h -3.18164 v 10.916015 q 0,1.353516 0.1582,1.740235 0.17578,0.386718 0.54492,0.615234 0.38672,0.228516 1.08985,0.228516 0.52734,0 1.38867,-0.123047 z m 1.91601,-6.503906 q 0,-5.185547 2.88282,-7.681641 2.4082,-2.074219 5.87109,-2.074219 3.84961,0 6.29297,2.53125 2.44336,2.513672 2.44336,6.960938 0,3.603515 -1.08985,5.677734 -1.07226,2.056641 -3.14648,3.199219 -2.05664,1.142578 -4.5,1.142578 -3.91992,0 -6.3457,-2.513672 -2.40821,-2.513672 -2.40821,-7.242187 z m 3.25196,0 q 0,3.585937 1.56445,5.378906 1.56445,1.77539 3.9375,1.77539 2.35547,0 3.91992,-1.792968 1.56446,-1.792969 1.56446,-5.466797 0,-3.462891 -1.58204,-5.238281 -1.56445,-1.792969 -3.90234,-1.792969 -2.37305,0 -3.9375,1.77539 -1.56445,1.775391 -1.56445,5.361329 z m 27.19336,1.054687 3.21679,-0.28125 q 0.22852,1.933594 1.05469,3.181641 0.84375,1.230468 2.60156,2.003906 1.75782,0.755859 3.95508,0.755859 1.95117,0 3.44531,-0.580078 1.49414,-0.580078 2.21485,-1.582031 0.73828,-1.019531 0.73828,-2.214844 0,-1.21289 -0.70313,-2.109375 -0.70312,-0.914062 -2.32031,-1.529297 -1.03711,-0.404297 -4.58789,-1.248047 -3.55078,-0.861328 -4.97461,-1.617187 -1.8457,-0.966797 -2.75976,-2.390625 -0.89649,-1.441406 -0.89649,-3.216797 0,-1.951172 1.10742,-3.638672 1.10743,-1.705078 3.23438,-2.583984 2.12695,-0.878906 4.72851,-0.878906 2.86524,0 5.04493,0.93164 2.19726,0.914063 3.375,2.707031 1.17773,1.792969 1.26562,4.060547 l -3.26953,0.246094 q -0.26367,-2.443359 -1.79297,-3.691406 -1.51172,-1.248047 -4.48242,-1.248047 -3.09375,0 -4.51758,1.142578 -1.40625,1.125 -1.40625,2.724609 0,1.388672 1.00195,2.285157 0.98438,0.896484 5.13282,1.845703 4.16601,0.93164 5.71289,1.634765 2.25,1.03711 3.32226,2.636719 1.07227,1.582031 1.07227,3.65625 0,2.056641 -1.17774,3.884766 -1.17773,1.810547 -3.39257,2.830078 -2.19727,1.001953 -4.95704,1.001953 -3.49804,0 -5.87109,-1.019531 -2.35547,-1.019531 -3.70898,-3.058594 -1.33594,-2.056641 -1.40625,-4.640625 z m 36.94922,1.441406 3.11132,0.404297 q -0.50976,3.216797 -2.61914,5.044922 -2.09179,1.810547 -5.15039,1.810547 -3.83203,0 -6.16992,-2.496094 -2.32031,-2.513672 -2.32031,-7.189453 0,-3.023437 1.00195,-5.291016 1.00195,-2.267578 3.04102,-3.392578 2.05664,-1.142578 4.46484,-1.142578 3.04102,0 4.97461,1.546875 1.93359,1.529297 2.47852,4.359375 l -3.07618,0.47461 q -0.43945,-1.88086 -1.56445,-2.830079 -1.10742,-0.949218 -2.68945,-0.949218 -2.39063,0 -3.88477,1.722656 -1.49414,1.705078 -1.49414,5.414062 0,3.761719 1.44141,5.466797 1.4414,1.705078 3.76172,1.705078 1.86328,0 3.11132,-1.142578 1.24805,-1.142578 1.58204,-3.515625 z m 5.83593,-15.292968 v -3.638672 h 3.16407 v 3.638672 z m 0,22.130859 V 26.332031 h 3.16407 V 45 Z m 20.75977,-6.011719 3.26953,0.404297 q -0.77344,2.865234 -2.86523,4.447266 -2.0918,1.582031 -5.34375,1.582031 -4.09571,0 -6.50391,-2.513672 -2.39063,-2.53125 -2.39063,-7.083984 0,-4.710938 2.42579,-7.3125 2.42578,-2.601563 6.29296,-2.601563 3.74414,0 6.11719,2.548828 2.37305,2.548828 2.37305,7.171875 0,0.28125 -0.0176,0.84375 h -13.92187 q 0.17578,3.076172 1.74023,4.710938 1.56445,1.634765 3.90234,1.634765 1.74024,0 2.97071,-0.914062 1.23047,-0.914063 1.95117,-2.917969 z m -10.38867,-5.115234 h 10.42382 q -0.21093,-2.355469 -1.19531,-3.533203 -1.51172,-1.828125 -3.91992,-1.828125 -2.17969,0 -3.67383,1.458984 -1.47656,1.458984 -1.63476,3.902344 z M 261.19141,45 V 26.332031 h 2.84765 v 2.654297 q 2.05664,-3.076172 5.94141,-3.076172 1.6875,0 3.09375,0.615235 1.42383,0.597656 2.12695,1.582031 0.70313,0.984375 0.98438,2.33789 0.17578,0.878907 0.17578,3.076172 V 45 h -3.16406 V 33.644531 q 0,-1.933594 -0.36915,-2.882812 -0.36914,-0.966797 -1.31835,-1.529297 -0.93165,-0.580078 -2.19727,-0.580078 -2.02148,0 -3.49805,1.283203 -1.45898,1.283203 -1.45898,4.86914 V 45 Z m 32.20312,-6.837891 3.11133,0.404297 q -0.50977,3.216797 -2.61914,5.044922 -2.0918,1.810547 -5.15039,1.810547 -3.83203,0 -6.16992,-2.496094 -2.32032,-2.513672 -2.32032,-7.189453 0,-3.023437 1.00196,-5.291016 1.00195,-2.267578 3.04101,-3.392578 2.05664,-1.142578 4.46485,-1.142578 3.04101,0 4.97461,1.546875 1.93359,1.529297 2.47851,4.359375 l -3.07617,0.47461 q -0.43945,-1.88086 -1.56445,-2.830079 -1.10743,-0.949218 -2.68946,-0.949218 -2.39062,0 -3.88476,1.722656 -1.49414,1.705078 -1.49414,5.414062 0,3.761719 1.4414,5.466797 1.44141,1.705078 3.76172,1.705078 1.86328,0 3.11133,-1.142578 1.24805,-1.142578 1.58203,-3.515625 z m 18.59766,0.826172 3.26953,0.404297 q -0.77344,2.865234 -2.86524,4.447266 -2.09179,1.582031 -5.34375,1.582031 -4.0957,0 -6.5039,-2.513672 -2.39063,-2.53125 -2.39063,-7.083984 0,-4.710938 2.42578,-7.3125 2.42579,-2.601563 6.29297,-2.601563 3.74414,0 6.11719,2.548828 2.37305,2.548828 2.37305,7.171875 0,0.28125 -0.0176,0.84375 h -13.92188 q 0.17579,3.076172 1.74024,4.710938 1.56445,1.634765 3.90234,1.634765 1.74024,0 2.97071,-0.914062 1.23046,-0.914063 1.95117,-2.917969 z m -10.38867,-5.115234 h 10.42382 q -0.21093,-2.355469 -1.19531,-3.533203 -1.51172,-1.828125 -3.91992,-1.828125 -2.17969,0 -3.67383,1.458984 -1.47656,1.458984 -1.63476,3.902344 z"
       id="path5" />
    <path
       style="font-size:14px"
       d="m 320.2041,24.549805 v -4.744141 h -1.80469 v -0.827148 h 4.55274 v 0.827148 h -1.81836 v 4.744141 z m 3.37012,0 v -5.571289 h 1.36719 l 1.4082,4.450195 1.36035,-4.450195 h 1.33984 v 5.571289 h -0.84765 v -4.675782 l -1.43555,4.675782 h -0.84082 l -1.49707,-4.744141 v 4.744141 z"
       id="path6" />
  </g>
  <metadata
     id="metadata6">
    <rdf:RDF>
      <cc:License
         rdf:about="http://creativecommons.org/licenses/by-sa/4.0/">
        <cc:permits
           rdf:resource="http://creativecommons.org/ns#Reproduction" />
        <cc:permits
           rdf:resource="http://creativecommons.org/ns#Distribution" />
        <cc:requires
           rdf:resource="http://creativecommons.org/ns#Notice" />
        <cc:requires
           rdf:resource="http://creativecommons.org/ns#Attribution" />
        <cc:permits
           rdf:resource="http://creativecommons.org/ns#DerivativeWorks" />
        <cc:requires
           rdf:resource="http://creativecommons.org/ns#ShareAlike" />
      </cc:License>
      <cc:Work
         rdf:about="">
        <cc:license
           rdf:resource="http://creativecommons.org/licenses/by-sa/4.0/" />
      </cc:Work>
    </rdf:RDF>
  </metadata>
</svg>
